<svg width="223" height="116" viewBox="0 0 223 116" fill="none" xmlns="http://www.w3.org/2000/svg">
<g clip-path="url(#clip0_1_2)">
<g filter="url(#filter0_i_1_2)">
<path d="M61.9375 10.9688L61.4688 30.8438L47.5 31.4062L43.9375 75.8438L24.1562 76.875L24.25 32.4375L10.2812 33.1875L10.8438 11.0625L61.9375 10.9688ZM111.938 44.9062C111.938 47.75 111.61 50.5 110.954 53.1562C110.298 55.7812 109.344 58.25 108.094 60.5625C106.876 62.875 105.376 65 103.594 66.9375C101.844 68.8438 99.86 70.4844 97.6413 71.8594C95.4538 73.2344 93.0631 74.3125 90.4694 75.0938C87.8756 75.8438 85.1256 76.2188 82.2194 76.2188C79.4069 76.2188 76.7194 75.8594 74.1569 75.1406C71.6256 74.4219 69.2506 73.4219 67.0319 72.1406C64.8131 70.8281 62.7975 69.2656 60.985 67.4531C59.2038 65.6094 57.6725 63.5781 56.3913 61.3594C55.1413 59.1094 54.1569 56.7031 53.4381 54.1406C52.7506 51.5781 52.4069 48.9062 52.4069 46.125C52.4069 43.4062 52.735 40.75 53.3913 38.1562C54.0475 35.5312 54.985 33.0625 56.2038 30.75C57.4538 28.4375 58.9538 26.3125 60.7038 24.375C62.4538 22.4375 64.4069 20.7656 66.5631 19.3594C68.7506 17.9531 71.11 16.8594 73.6413 16.0781C76.1725 15.2969 78.8444 14.9062 81.6569 14.9062C86.1881 14.9062 90.3131 15.6094 94.0319 17.0156C97.7819 18.4219 100.969 20.4375 103.594 23.0625C106.251 25.6562 108.298 28.8125 109.735 32.5312C111.204 36.2188 111.938 40.3438 111.938 44.9062ZM91.1256 46.125C91.1256 44.7812 90.9225 43.4844 90.5163 42.2344C90.1413 40.9531 89.5788 39.8281 88.8288 38.8594C88.0788 37.8594 87.1413 37.0625 86.0163 36.4688C84.9225 35.8438 83.6569 35.5312 82.2194 35.5312C80.7506 35.5312 79.4381 35.7969 78.2819 36.3281C77.1256 36.8594 76.1256 37.5938 75.2819 38.5312C74.4694 39.4375 73.8444 40.5156 73.4069 41.7656C72.9694 42.9844 72.7506 44.2812 72.7506 45.6562C72.7506 46.9688 72.9381 48.2812 73.3131 49.5938C73.6881 50.9062 74.2506 52.0938 75.0006 53.1562C75.7506 54.2188 76.6725 55.0781 77.7663 55.7344C78.8913 56.3906 80.1881 56.7188 81.6569 56.7188C83.1256 56.7188 84.4381 56.4375 85.5944 55.875C86.7819 55.2812 87.7819 54.5 88.5944 53.5312C89.4069 52.5312 90.0319 51.3906 90.4694 50.1094C90.9069 48.8281 91.1256 47.5 91.1256 46.125ZM159.689 40.7812C159.689 45.1562 159.126 49.1094 158.001 52.6406C156.876 56.1406 155.298 59.2656 153.267 62.0156C151.267 64.7344 148.876 67.0781 146.095 69.0469C143.314 71.0156 140.267 72.6406 136.954 73.9219C133.642 75.1719 130.111 76.1094 126.361 76.7344C122.642 77.3281 118.814 77.625 114.876 77.625C113.408 77.625 111.97 77.5938 110.564 77.5312C109.158 77.4375 107.72 77.3125 106.251 77.1562L107.564 14.25C111.001 13.1563 114.533 12.3906 118.158 11.9531C121.814 11.4844 125.439 11.25 129.033 11.25C133.501 11.25 137.611 11.9219 141.361 13.2656C145.111 14.6094 148.345 16.5469 151.064 19.0781C153.783 21.6094 155.892 24.7031 157.392 28.3594C158.923 32.0156 159.689 36.1562 159.689 40.7812ZM140.47 43.7812C140.501 42.0938 140.314 40.4688 139.908 38.9062C139.533 37.3438 138.892 35.9688 137.986 34.7812C137.111 33.5625 135.986 32.5938 134.611 31.875C133.236 31.125 131.595 30.7188 129.689 30.6562L127.814 59.7188C129.689 59.4375 131.392 58.8281 132.923 57.8906C134.454 56.9219 135.767 55.75 136.861 54.375C137.986 52.9688 138.845 51.4219 139.439 49.7344C140.064 48.0156 140.408 46.25 140.47 44.4375V43.7812ZM211.846 44.9062C211.846 47.75 211.518 50.5 210.861 53.1562C210.205 55.7812 209.252 58.25 208.002 60.5625C206.783 62.875 205.283 65 203.502 66.9375C201.752 68.8438 199.768 70.4844 197.549 71.8594C195.361 73.2344 192.971 74.3125 190.377 75.0938C187.783 75.8438 185.033 76.2188 182.127 76.2188C179.314 76.2188 176.627 75.8594 174.064 75.1406C171.533 74.4219 169.158 73.4219 166.939 72.1406C164.721 70.8281 162.705 69.2656 160.893 67.4531C159.111 65.6094 157.58 63.5781 156.299 61.3594C155.049 59.1094 154.064 56.7031 153.346 54.1406C152.658 51.5781 152.314 48.9062 152.314 46.125C152.314 43.4062 152.643 40.75 153.299 38.1562C153.955 35.5312 154.893 33.0625 156.111 30.75C157.361 28.4375 158.861 26.3125 160.611 24.375C162.361 22.4375 164.314 20.7656 166.471 19.3594C168.658 17.9531 171.018 16.8594 173.549 16.0781C176.08 15.2969 178.752 14.9062 181.564 14.9062C186.096 14.9062 190.221 15.6094 193.939 17.0156C197.689 18.4219 200.877 20.4375 203.502 23.0625C206.158 25.6562 208.205 28.8125 209.643 32.5312C211.111 36.2188 211.846 40.3438 211.846 44.9062ZM191.033 46.125C191.033 44.7812 190.83 43.4844 190.424 42.2344C190.049 40.9531 189.486 39.8281 188.736 38.8594C187.986 37.8594 187.049 37.0625 185.924 36.4688C184.83 35.8438 183.564 35.5312 182.127 35.5312C180.658 35.5312 179.346 35.7969 178.189 36.3281C177.033 36.8594 176.033 37.5938 175.189 38.5312C174.377 39.4375 173.752 40.5156 173.314 41.7656C172.877 42.9844 172.658 44.2812 172.658 45.6562C172.658 46.9688 172.846 48.2812 173.221 49.5938C173.596 50.9062 174.158 52.0938 174.908 53.1562C175.658 54.2188 176.58 55.0781 177.674 55.7344C178.799 56.3906 180.096 56.7188 181.564 56.7188C183.033 56.7188 184.346 56.4375 185.502 55.875C186.689 55.2812 187.689 54.5 188.502 53.5312C189.314 52.5312 189.939 51.3906 190.377 50.1094C190.814 48.8281 191.033 47.5 191.033 46.125Z" fill="white"/>
<path d="M10 54.5625H212.736V59.25H10V54.5625Z" fill="white"/>
</g>
</g>
<defs>
<filter id="filter0_i_1_2" x="10" y="10.9688" width="202.736" height="69.1562" filterUnits="userSpaceOnUse" color-interpolation-filters="sRGB">
<feFlood flood-opacity="0" result="BackgroundImageFix"/>
<feBlend mode="normal" in="SourceGraphic" in2="BackgroundImageFix" result="shape"/>
<feColorMatrix in="SourceAlpha" type="matrix" values="0 0 0 0 0 0 0 0 0 0 0 0 0 0 0 0 0 0 127 0" result="hardAlpha"/>
<feOffset dy="5"/>
<feGaussianBlur stdDeviation="1.25"/>
<feComposite in2="hardAlpha" operator="arithmetic" k2="-1" k3="1"/>
<feColorMatrix type="matrix" values="0 0 0 0 0.5875 0 0 0 0 0.00244792 0 0 0 0 0.00244792 0 0 0 0.25 0"/>
<feBlend mode="normal" in2="shape" result="effect1_innerShadow_1_2"/>
</filter>
<clipPath id="clip0_1_2">
<rect width="223" height="116" rx="9" fill="white"/>
</clipPath>
</defs>
</svg>
